<svg width="93" height="26" viewBox="0 0 93 26" fill="none" xmlns="http://www.w3.org/2000/svg">
<path d="M0.970703 26V0.40625H9.33789C12.1152 0.40625 14.2012 0.980469 15.5957 2.12891C17.002 3.27734 17.7051 4.97656 17.7051 7.22656C17.7051 8.42188 17.3652 9.48242 16.6855 10.4082C16.0059 11.3223 15.0801 12.0312 13.9082 12.5352C15.291 12.9219 16.3809 13.6602 17.1777 14.75C17.9863 15.8281 18.3906 17.1172 18.3906 18.6172C18.3906 20.9141 17.6465 22.7188 16.1582 24.0312C14.6699 25.3438 12.5664 26 9.84766 26H0.970703ZM4.3457 14.0293V23.2402H9.91797C11.4883 23.2402 12.7246 22.8359 13.627 22.0273C14.541 21.207 14.998 20.082 14.998 18.6523C14.998 15.5703 13.3223 14.0293 9.9707 14.0293H4.3457ZM4.3457 11.3223H9.44336C10.9199 11.3223 12.0977 10.9531 12.9766 10.2148C13.8672 9.47656 14.3125 8.47461 14.3125 7.20898C14.3125 5.80273 13.9023 4.7832 13.082 4.15039C12.2617 3.50586 11.0137 3.18359 9.33789 3.18359H4.3457V11.3223ZM37.8672 14.1699H26.7754V23.2402H39.6602V26H23.4004V0.40625H39.4844V3.18359H26.7754V11.4102H37.8672V14.1699ZM58.9434 15.8047H48.9941V26H42.8242V0.40625H59.9453V5.16992H48.9941V11.0586H58.9434V15.8047ZM69.0859 26H62.9336V0.40625H69.0859V26ZM92.9395 5.16992H85.2578V26H79.0879V5.16992H71.5469V0.40625H92.9395V5.16992Z" fill="black"/>
</svg>
