<svg width="71" height="69" viewBox="0 0 71 69" fill="none" xmlns="http://www.w3.org/2000/svg">
<path d="M60 23.5001H45V11.0001C45.2519 8.59991 44.54 6.19795 43.021 4.32261C41.5019 2.44726 39.3002 1.25213 36.9 1.0001C36.2689 0.925097 35.6311 0.925097 35 1.0001H31.075C30.2393 1.023 29.4349 1.32263 28.7879 1.852C28.1409 2.38136 27.6879 3.11052 27.5 3.9251V4.2251L25 20.0751L16.15 33.5001H0V68.5001H47.5C66.1 68.5001 70 57.6251 70 48.5001V33.5001C70.2519 31.0999 69.54 28.698 68.021 26.8226C66.5019 24.9473 64.3002 23.7521 61.9 23.5001C61.2689 23.4251 60.6311 23.4251 60 23.5001ZM15 63.5001H5V38.5001H15V63.5001ZM65 48.5001C65 58.7251 59.45 63.5001 47.5 63.5001H20V36.7501L30 21.9251L31.825 8.5001L32.175 6.0001H35C38.6 6.0001 40 7.4001 40 11.0001V28.5001H60C63.6 28.5001 65 29.9001 65 33.5001V48.5001Z" fill="white"/>
</svg>
