<svg width="112" height="20" viewBox="0 0 112 20" fill="none" xmlns="http://www.w3.org/2000/svg">
<path d="M11.4286 10.8571C11.4286 12.4308 10.1451 13.7143 8.57143 13.7143C6.99777 13.7143 5.71429 12.4308 5.71429 10.8571C5.71429 9.28348 6.99777 8 8.57143 8C10.1451 8 11.4286 9.28348 11.4286 10.8571ZM12.9688 10.8571C12.9688 8.42411 11.0045 6.45982 8.57143 6.45982C6.13839 6.45982 4.17411 8.42411 4.17411 10.8571C4.17411 13.2902 6.13839 15.2545 8.57143 15.2545C11.0045 15.2545 12.9688 13.2902 12.9688 10.8571ZM14.1741 6.28125C14.1741 5.71205 13.7165 5.25446 13.1473 5.25446C12.5781 5.25446 12.1205 5.71205 12.1205 6.28125C12.1205 6.85045 12.5781 7.30804 13.1473 7.30804C13.7165 7.30804 14.1741 6.85045 14.1741 6.28125ZM8.57143 3.82589C9.82143 3.82589 12.5 3.72545 13.6272 4.17187C14.0179 4.32812 14.308 4.51786 14.6094 4.8192C14.9107 5.12054 15.1004 5.41071 15.2567 5.80134C15.7031 6.92857 15.6027 9.60714 15.6027 10.8571C15.6027 12.1071 15.7031 14.7857 15.2567 15.9129C15.1004 16.3036 14.9107 16.5938 14.6094 16.8951C14.308 17.1964 14.0179 17.3862 13.6272 17.5424C12.5 17.9888 9.82143 17.8884 8.57143 17.8884C7.32143 17.8884 4.64286 17.9888 3.51563 17.5424C3.125 17.3862 2.83482 17.1964 2.53348 16.8951C2.23214 16.5938 2.04241 16.3036 1.88616 15.9129C1.43973 14.7857 1.54018 12.1071 1.54018 10.8571C1.54018 9.60714 1.43973 6.92857 1.88616 5.80134C2.04241 5.41071 2.23214 5.12054 2.53348 4.8192C2.83482 4.51786 3.125 4.32812 3.51563 4.17187C4.64286 3.72545 7.32143 3.82589 8.57143 3.82589ZM17.1429 10.8571C17.1429 9.67411 17.154 8.50223 17.0871 7.3192C17.0201 5.94643 16.7076 4.72991 15.7031 3.72545C14.6987 2.72098 13.4821 2.40848 12.1094 2.34152C10.9263 2.27455 9.75446 2.28571 8.57143 2.28571C7.38839 2.28571 6.21652 2.27455 5.03348 2.34152C3.66071 2.40848 2.4442 2.72098 1.43973 3.72545C0.435268 4.72991 0.122768 5.94643 0.0558036 7.3192C-0.0111607 8.50223 0 9.67411 0 10.8571C0 12.0402 -0.0111607 13.2121 0.0558036 14.3951C0.122768 15.7679 0.435268 16.9844 1.43973 17.9888C2.4442 18.9933 3.66071 19.3058 5.03348 19.3728C6.21652 19.4397 7.38839 19.4286 8.57143 19.4286C9.75446 19.4286 10.9263 19.4397 12.1094 19.3728C13.4821 19.3058 14.6987 18.9933 15.7031 17.9888C16.7076 16.9844 17.0201 15.7679 17.0871 14.3951C17.154 13.2121 17.1429 12.0402 17.1429 10.8571ZM70.2288 5.41071C69.5815 5.68973 68.8783 5.89062 68.1529 5.96875C68.9007 5.52232 69.4699 4.8192 69.7377 3.98214C69.0458 4.39509 68.2645 4.69643 67.4498 4.85268C66.7913 4.14955 65.8538 3.71429 64.8158 3.71429C62.8181 3.71429 61.2109 5.33259 61.2109 7.3192C61.2109 7.59821 61.2444 7.87723 61.3002 8.14509C58.3092 7.98884 55.6417 6.56027 53.8672 4.37277C53.5547 4.90848 53.3761 5.52232 53.3761 6.19196C53.3761 7.44196 54.0123 8.54687 54.9833 9.1942C54.3917 9.17187 53.8337 9.00446 53.3538 8.73661C53.3538 8.74777 53.3538 8.77009 53.3538 8.78125C53.3538 10.5335 54.5926 11.9844 56.2444 12.3192C55.9431 12.3973 55.6194 12.442 55.2958 12.442C55.0614 12.442 54.8382 12.4196 54.615 12.3862C55.0725 13.8147 56.4007 14.8527 57.9855 14.8862C56.7467 15.8571 55.1953 16.4263 53.51 16.4263C53.2087 16.4263 52.9297 16.4152 52.6395 16.3817C54.2355 17.4085 56.1328 18 58.1752 18C64.8047 18 68.4319 12.5089 68.4319 7.7433C68.4319 7.58705 68.4319 7.4308 68.4208 7.27455C69.1239 6.76116 69.7377 6.125 70.2288 5.41071ZM111.426 0.991071C111.124 0.946428 110.086 0.857141 108.881 0.857141C106.359 0.857141 104.629 2.39732 104.629 5.22098V7.65402H101.783V10.9576H104.629V19.4286H108.044V10.9576H110.879L111.314 7.65402H108.044V5.54464C108.044 4.59598 108.301 3.9375 109.674 3.9375H111.426V0.991071Z" fill="#FF4301"/>
</svg>
